STARTFONT 2.1
COMMENT
COMMENT Converted from OpenType font "slkscrb.ttf" by "otf2bdf 3.0".
COMMENT
FONT -FreeType-Silkscreen-Bold-R-Normal--10-100-72-72-P-63-ISO10646-1
SIZE 10 72 72
FONTBOUNDINGBOX 12 12 0 -2
STARTPROPERTIES 19
FOUNDRY "FreeType"
FAMILY_NAME "Silkscreen"
WEIGHT_NAME "Bold"
SLANT "R"
SETWIDTH_NAME "Normal"
ADD_STYLE_NAME ""
PIXEL_SIZE 10
POINT_SIZE 100
RESOLUTION_X 72
RESOLUTION_Y 72
SPACING "P"
AVERAGE_WIDTH 63
CHARSET_REGISTRY "ISO10646"
CHARSET_ENCODING "1"
FONT_ASCENT 10
FONT_DESCENT 2
COPYRIGHT "Copyright (c) Jason Kottke, 2001. All rights reserved."
_OTF_FONTFILE "slkscrb.ttf"
_OTF_PSNAME "Silkscreen-Bold"
ENDPROPERTIES
CHARS 218
STARTCHAR 0020
ENCODING 32
SWIDTH 500 0
DWIDTH 5 0
BBX 0 0 0 0
BITMAP
ENDCHAR
STARTCHAR 0021
ENCODING 33
SWIDTH 500 0
DWIDTH 5 0
BBX 3 6 1 0
BITMAP
E0
E0
E0
E0
00
E0
ENDCHAR
STARTCHAR 0022
ENCODING 34
SWIDTH 700 0
DWIDTH 7 0
BBX 5 2 1 4
BITMAP
F8
F8
ENDCHAR
STARTCHAR 0023
ENCODING 35
SWIDTH 1000 0
DWIDTH 10 0
BBX 8 6 1 0
BITMAP
7C
FF
7C
7C
FF
7C
ENDCHAR
STARTCHAR 0024
ENCODING 36
SWIDTH 800 0
DWIDTH 8 0
BBX 6 8 1 -1
BITMAP
38
7C
E0
78
08
0C
F8
70
ENDCHAR
STARTCHAR 0025
ENCODING 37
SWIDTH 900 0
DWIDTH 9 0
BBX 7 6 1 0
BITMAP
FC
FC
38
38
7E
7E
ENDCHAR
STARTCHAR 0026
ENCODING 38
SWIDTH 800 0
DWIDTH 8 0
BBX 6 8 1 -1
BITMAP
38
7C
E0
78
60
E0
7C
38
ENDCHAR
STARTCHAR 0027
ENCODING 39
SWIDTH 500 0
DWIDTH 5 0
BBX 3 2 1 4
BITMAP
E0
E0
ENDCHAR
STARTCHAR 0028
ENCODING 40
SWIDTH 600 0
DWIDTH 6 0
BBX 4 6 1 0
BITMAP
70
E0
E0
E0
E0
70
ENDCHAR
STARTCHAR 0029
ENCODING 41
SWIDTH 600 0
DWIDTH 6 0
BBX 4 6 1 0
BITMAP
E0
70
70
70
70
E0
ENDCHAR
STARTCHAR 002A
ENCODING 42
SWIDTH 1000 0
DWIDTH 10 0
BBX 8 6 1 0
BITMAP
38
FF
7C
7C
FF
38
ENDCHAR
STARTCHAR 002B
ENCODING 43
SWIDTH 1000 0
DWIDTH 10 0
BBX 8 6 1 0
BITMAP
38
38
FF
38
38
38
ENDCHAR
STARTCHAR 002C
ENCODING 44
SWIDTH 600 0
DWIDTH 6 0
BBX 4 2 1 -1
BITMAP
70
E0
ENDCHAR
STARTCHAR 002D
ENCODING 45
SWIDTH 700 0
DWIDTH 7 0
BBX 5 1 1 3
BITMAP
F8
ENDCHAR
STARTCHAR 002E
ENCODING 46
SWIDTH 500 0
DWIDTH 5 0
BBX 3 1 1 0
BITMAP
E0
ENDCHAR
STARTCHAR 002F
ENCODING 47
SWIDTH 700 0
DWIDTH 7 0
BBX 5 6 1 0
BITMAP
38
38
70
40
E0
E0
ENDCHAR
STARTCHAR 0030
ENCODING 48
SWIDTH 800 0
DWIDTH 8 0
BBX 6 6 1 0
BITMAP
78
FC
FC
FC
FC
78
ENDCHAR
STARTCHAR 0031
ENCODING 49
SWIDTH 700 0
DWIDTH 7 0
BBX 5 6 1 0
BITMAP
F0
70
70
70
70
F8
ENDCHAR
STARTCHAR 0032
ENCODING 50
SWIDTH 800 0
DWIDTH 8 0
BBX 6 6 1 0
BITMAP
F8
1C
78
60
E0
FC
ENDCHAR
STARTCHAR 0033
ENCODING 51
SWIDTH 800 0
DWIDTH 8 0
BBX 6 6 1 0
BITMAP
F8
1C
78
18
1C
F8
ENDCHAR
STARTCHAR 0034
ENCODING 52
SWIDTH 900 0
DWIDTH 9 0
BBX 6 6 1 0
BITMAP
F8
F8
F8
FC
38
38
ENDCHAR
STARTCHAR 0035
ENCODING 53
SWIDTH 800 0
DWIDTH 8 0
BBX 6 6 1 0
BITMAP
FC
E0
F8
18
1C
F8
ENDCHAR
STARTCHAR 0036
ENCODING 54
SWIDTH 800 0
DWIDTH 8 0
BBX 6 6 1 0
BITMAP
78
E0
F8
F8
FC
78
ENDCHAR
STARTCHAR 0037
ENCODING 55
SWIDTH 800 0
DWIDTH 8 0
BBX 6 6 1 0
BITMAP
FC
1C
38
38
70
70
ENDCHAR
STARTCHAR 0038
ENCODING 56
SWIDTH 800 0
DWIDTH 8 0
BBX 6 6 1 0
BITMAP
78
FC
78
78
FC
78
ENDCHAR
STARTCHAR 0039
ENCODING 57
SWIDTH 800 0
DWIDTH 8 0
BBX 6 6 1 0
BITMAP
78
FC
7C
1C
1C
78
ENDCHAR
STARTCHAR 003A
ENCODING 58
SWIDTH 500 0
DWIDTH 5 0
BBX 3 3 1 1
BITMAP
E0
00
E0
ENDCHAR
STARTCHAR 003B
ENCODING 59
SWIDTH 600 0
DWIDTH 6 0
BBX 4 5 1 0
BITMAP
70
00
00
70
E0
ENDCHAR
STARTCHAR 003C
ENCODING 60
SWIDTH 700 0
DWIDTH 7 0
BBX 5 6 1 0
BITMAP
38
70
E0
40
70
38
ENDCHAR
STARTCHAR 003D
ENCODING 61
SWIDTH 700 0
DWIDTH 7 0
BBX 5 3 1 1
BITMAP
F8
00
F8
ENDCHAR
STARTCHAR 003E
ENCODING 62
SWIDTH 700 0
DWIDTH 7 0
BBX 5 6 1 0
BITMAP
E0
70
38
30
70
E0
ENDCHAR
STARTCHAR 003F
ENCODING 63
SWIDTH 800 0
DWIDTH 8 0
BBX 6 6 1 0
BITMAP
FC
0C
7C
00
00
70
ENDCHAR
STARTCHAR 0040
ENCODING 64
SWIDTH 1000 0
DWIDTH 10 0
BBX 7 6 1 0
BITMAP
7C
FE
FC
FC
E0
7C
ENDCHAR
STARTCHAR 0041
ENCODING 65
SWIDTH 800 0
DWIDTH 8 0
BBX 6 6 1 0
BITMAP
78
FC
FC
FC
FC
FC
ENDCHAR
STARTCHAR 0042
ENCODING 66
SWIDTH 800 0
DWIDTH 8 0
BBX 6 6 1 0
BITMAP
F8
FC
FC
FC
FC
F8
ENDCHAR
STARTCHAR 0043
ENCODING 67
SWIDTH 800 0
DWIDTH 8 0
BBX 6 6 1 0
BITMAP
78
FC
E0
E0
FC
78
ENDCHAR
STARTCHAR 0044
ENCODING 68
SWIDTH 800 0
DWIDTH 8 0
BBX 6 6 1 0
BITMAP
F8
FC
FC
FC
FC
F8
ENDCHAR
STARTCHAR 0045
ENCODING 69
SWIDTH 700 0
DWIDTH 7 0
BBX 5 6 1 0
BITMAP
F8
E0
F8
E0
E0
F8
ENDCHAR
STARTCHAR 0046
ENCODING 70
SWIDTH 700 0
DWIDTH 7 0
BBX 5 6 1 0
BITMAP
F8
E0
F8
E0
E0
E0
ENDCHAR
STARTCHAR 0047
ENCODING 71
SWIDTH 800 0
DWIDTH 8 0
BBX 6 6 1 0
BITMAP
7C
E0
E0
FC
FC
78
ENDCHAR
STARTCHAR 0048
ENCODING 72
SWIDTH 800 0
DWIDTH 8 0
BBX 6 6 1 0
BITMAP
FC
FC
FC
FC
FC
FC
ENDCHAR
STARTCHAR 0049
ENCODING 73
SWIDTH 500 0
DWIDTH 5 0
BBX 3 6 1 0
BITMAP
E0
E0
E0
E0
E0
E0
ENDCHAR
STARTCHAR 004A
ENCODING 74
SWIDTH 800 0
DWIDTH 8 0
BBX 6 6 1 0
BITMAP
1C
1C
1C
1C
FC
78
ENDCHAR
STARTCHAR 004B
ENCODING 75
SWIDTH 800 0
DWIDTH 8 0
BBX 6 6 1 0
BITMAP
FC
F8
F0
F0
F8
FC
ENDCHAR
STARTCHAR 004C
ENCODING 76
SWIDTH 700 0
DWIDTH 7 0
BBX 5 6 1 0
BITMAP
E0
E0
E0
E0
E0
F8
ENDCHAR
STARTCHAR 004D
ENCODING 77
SWIDTH 1000 0
DWIDTH 10 0
BBX 8 6 1 0
BITMAP
E7
FF
FF
E7
E7
E7
ENDCHAR
STARTCHAR 004E
ENCODING 78
SWIDTH 1000 0
DWIDTH 10 0
BBX 8 6 1 0
BITMAP
E7
F7
F7
EF
EF
E7
ENDCHAR
STARTCHAR 004F
ENCODING 79
SWIDTH 800 0
DWIDTH 8 0
BBX 6 6 1 0
BITMAP
78
FC
FC
FC
FC
78
ENDCHAR
STARTCHAR 0050
ENCODING 80
SWIDTH 800 0
DWIDTH 8 0
BBX 6 6 1 0
BITMAP
F8
FC
F8
E0
E0
E0
ENDCHAR
STARTCHAR 0051
ENCODING 81
SWIDTH 800 0
DWIDTH 8 0
BBX 6 7 1 -1
BITMAP
78
FC
FC
FC
FC
78
1C
ENDCHAR
STARTCHAR 0052
ENCODING 82
SWIDTH 800 0
DWIDTH 8 0
BBX 6 6 1 0
BITMAP
F8
FC
F8
F8
F8
FC
ENDCHAR
STARTCHAR 0053
ENCODING 83
SWIDTH 800 0
DWIDTH 8 0
BBX 6 6 1 0
BITMAP
7C
E0
78
18
1C
F8
ENDCHAR
STARTCHAR 0054
ENCODING 84
SWIDTH 700 0
DWIDTH 7 0
BBX 5 6 1 0
BITMAP
F8
70
70
70
70
70
ENDCHAR
STARTCHAR 0055
ENCODING 85
SWIDTH 800 0
DWIDTH 8 0
BBX 6 6 1 0
BITMAP
FC
FC
FC
FC
FC
78
ENDCHAR
STARTCHAR 0056
ENCODING 86
SWIDTH 1000 0
DWIDTH 10 0
BBX 8 6 1 0
BITMAP
E7
E7
7C
7C
7C
38
ENDCHAR
STARTCHAR 0057
ENCODING 87
SWIDTH 1000 0
DWIDTH 10 0
BBX 8 6 1 0
BITMAP
E7
FF
FF
FF
FF
7C
ENDCHAR
STARTCHAR 0058
ENCODING 88
SWIDTH 1000 0
DWIDTH 10 0
BBX 8 6 1 0
BITMAP
E7
7C
38
38
7C
E7
ENDCHAR
STARTCHAR 0059
ENCODING 89
SWIDTH 1000 0
DWIDTH 10 0
BBX 8 6 1 0
BITMAP
E7
7C
38
38
38
38
ENDCHAR
STARTCHAR 005A
ENCODING 90
SWIDTH 700 0
DWIDTH 7 0
BBX 5 6 1 0
BITMAP
F8
38
70
70
E0
F8
ENDCHAR
STARTCHAR 005B
ENCODING 91
SWIDTH 600 0
DWIDTH 6 0
BBX 4 6 1 0
BITMAP
F0
E0
E0
E0
E0
F0
ENDCHAR
STARTCHAR 005C
ENCODING 92
SWIDTH 700 0
DWIDTH 7 0
BBX 5 6 1 0
BITMAP
E0
E0
70
30
38
38
ENDCHAR
STARTCHAR 005D
ENCODING 93
SWIDTH 600 0
DWIDTH 6 0
BBX 4 6 1 0
BITMAP
F0
70
70
70
70
F0
ENDCHAR
STARTCHAR 005E
ENCODING 94
SWIDTH 700 0
DWIDTH 7 0
BBX 5 2 1 5
BITMAP
70
F8
ENDCHAR
STARTCHAR 005F
ENCODING 95
SWIDTH 800 0
DWIDTH 8 0
BBX 6 1 1 -1
BITMAP
FC
ENDCHAR
STARTCHAR 0060
ENCODING 96
SWIDTH 600 0
DWIDTH 6 0
BBX 4 2 1 4
BITMAP
E0
70
ENDCHAR
STARTCHAR 0061
ENCODING 97
SWIDTH 800 0
DWIDTH 8 0
BBX 6 6 1 0
BITMAP
78
FC
FC
FC
FC
FC
ENDCHAR
STARTCHAR 0062
ENCODING 98
SWIDTH 800 0
DWIDTH 8 0
BBX 6 6 1 0
BITMAP
F8
FC
FC
FC
FC
F8
ENDCHAR
STARTCHAR 0063
ENCODING 99
SWIDTH 800 0
DWIDTH 8 0
BBX 6 6 1 0
BITMAP
78
FC
E0
E0
FC
78
ENDCHAR
STARTCHAR 0064
ENCODING 100
SWIDTH 800 0
DWIDTH 8 0
BBX 6 6 1 0
BITMAP
F8
FC
FC
FC
FC
F8
ENDCHAR
STARTCHAR 0065
ENCODING 101
SWIDTH 700 0
DWIDTH 7 0
BBX 5 6 1 0
BITMAP
F8
E0
F8
E0
E0
F8
ENDCHAR
STARTCHAR 0066
ENCODING 102
SWIDTH 700 0
DWIDTH 7 0
BBX 5 6 1 0
BITMAP
F8
E0
F8
E0
E0
E0
ENDCHAR
STARTCHAR 0067
ENCODING 103
SWIDTH 800 0
DWIDTH 8 0
BBX 6 6 1 0
BITMAP
7C
E0
E0
FC
FC
78
ENDCHAR
STARTCHAR 0068
ENCODING 104
SWIDTH 800 0
DWIDTH 8 0
BBX 6 6 1 0
BITMAP
FC
FC
FC
FC
FC
FC
ENDCHAR
STARTCHAR 0069
ENCODING 105
SWIDTH 500 0
DWIDTH 5 0
BBX 3 6 1 0
BITMAP
E0
E0
E0
E0
E0
E0
ENDCHAR
STARTCHAR 006A
ENCODING 106
SWIDTH 800 0
DWIDTH 8 0
BBX 6 6 1 0
BITMAP
1C
1C
1C
1C
FC
78
ENDCHAR
STARTCHAR 006B
ENCODING 107
SWIDTH 800 0
DWIDTH 8 0
BBX 6 6 1 0
BITMAP
FC
F8
F0
F0
F8
FC
ENDCHAR
STARTCHAR 006C
ENCODING 108
SWIDTH 700 0
DWIDTH 7 0
BBX 5 6 1 0
BITMAP
E0
E0
E0
E0
E0
F8
ENDCHAR
STARTCHAR 006D
ENCODING 109
SWIDTH 1000 0
DWIDTH 10 0
BBX 8 6 1 0
BITMAP
E7
FF
FF
E7
E7
E7
ENDCHAR
STARTCHAR 006E
ENCODING 110
SWIDTH 1000 0
DWIDTH 10 0
BBX 8 6 1 0
BITMAP
E7
F7
F7
EF
EF
E7
ENDCHAR
STARTCHAR 006F
ENCODING 111
SWIDTH 800 0
DWIDTH 8 0
BBX 6 6 1 0
BITMAP
78
FC
FC
FC
FC
78
ENDCHAR
STARTCHAR 0070
ENCODING 112
SWIDTH 800 0
DWIDTH 8 0
BBX 6 6 1 0
BITMAP
F8
FC
F8
E0
E0
E0
ENDCHAR
STARTCHAR 0071
ENCODING 113
SWIDTH 800 0
DWIDTH 8 0
BBX 6 7 1 -1
BITMAP
78
FC
FC
FC
FC
78
1C
ENDCHAR
STARTCHAR 0072
ENCODING 114
SWIDTH 800 0
DWIDTH 8 0
BBX 6 6 1 0
BITMAP
F8
FC
F8
F8
F8
FC
ENDCHAR
STARTCHAR 0073
ENCODING 115
SWIDTH 800 0
DWIDTH 8 0
BBX 6 6 1 0
BITMAP
7C
E0
78
18
1C
F8
ENDCHAR
STARTCHAR 0074
ENCODING 116
SWIDTH 700 0
DWIDTH 7 0
BBX 5 6 1 0
BITMAP
F8
70
70
70
70
70
ENDCHAR
STARTCHAR 0075
ENCODING 117
SWIDTH 800 0
DWIDTH 8 0
BBX 6 6 1 0
BITMAP
FC
FC
FC
FC
FC
78
ENDCHAR
STARTCHAR 0076
ENCODING 118
SWIDTH 1000 0
DWIDTH 10 0
BBX 8 6 1 0
BITMAP
E7
E7
7C
7C
7C
38
ENDCHAR
STARTCHAR 0077
ENCODING 119
SWIDTH 1000 0
DWIDTH 10 0
BBX 8 6 1 0
BITMAP
E7
FF
FF
FF
FF
7C
ENDCHAR
STARTCHAR 0078
ENCODING 120
SWIDTH 1000 0
DWIDTH 10 0
BBX 8 6 1 0
BITMAP
E7
7C
38
38
7C
E7
ENDCHAR
STARTCHAR 0079
ENCODING 121
SWIDTH 1000 0
DWIDTH 10 0
BBX 8 6 1 0
BITMAP
E7
7C
38
38
38
38
ENDCHAR
STARTCHAR 007A
ENCODING 122
SWIDTH 700 0
DWIDTH 7 0
BBX 5 6 1 0
BITMAP
F8
38
70
70
E0
F8
ENDCHAR
STARTCHAR 007B
ENCODING 123
SWIDTH 800 0
DWIDTH 8 0
BBX 5 6 1 0
BITMAP
78
70
E0
40
70
78
ENDCHAR
STARTCHAR 007C
ENCODING 124
SWIDTH 500 0
DWIDTH 5 0
BBX 3 8 1 -1
BITMAP
E0
E0
E0
E0
E0
E0
E0
E0
ENDCHAR
STARTCHAR 007D
ENCODING 125
SWIDTH 700 0
DWIDTH 7 0
BBX 5 6 1 0
BITMAP
F0
70
38
20
70
F0
ENDCHAR
STARTCHAR 007E
ENCODING 126
SWIDTH 800 0
DWIDTH 8 0
BBX 6 2 1 4
BITMAP
7C
F8
ENDCHAR
STARTCHAR 00A0
ENCODING 160
SWIDTH 500 0
DWIDTH 5 0
BBX 0 0 0 0
BITMAP
ENDCHAR
STARTCHAR 00A1
ENCODING 161
SWIDTH 500 0
DWIDTH 5 0
BBX 3 6 1 0
BITMAP
E0
00
E0
E0
E0
E0
ENDCHAR
STARTCHAR 00A2
ENCODING 162
SWIDTH 800 0
DWIDTH 8 0
BBX 5 6 1 0
BITMAP
70
F8
E0
E0
F8
70
ENDCHAR
STARTCHAR 00A3
ENCODING 163
SWIDTH 800 0
DWIDTH 8 0
BBX 6 6 1 0
BITMAP
3C
38
F8
70
70
FC
ENDCHAR
STARTCHAR 00A4
ENCODING 164
SWIDTH 1000 0
DWIDTH 10 0
BBX 8 6 1 0
BITMAP
FF
7C
7C
7C
7C
FF
ENDCHAR
STARTCHAR 00A5
ENCODING 165
SWIDTH 1000 0
DWIDTH 10 0
BBX 8 6 1 0
BITMAP
E7
7C
38
38
7C
38
ENDCHAR
STARTCHAR 00A6
ENCODING 166
SWIDTH 500 0
DWIDTH 5 0
BBX 3 6 1 0
BITMAP
E0
E0
00
00
E0
E0
ENDCHAR
STARTCHAR 00A7
ENCODING 167
SWIDTH 800 0
DWIDTH 8 0
BBX 6 8 1 -1
BITMAP
78
E0
78
FC
78
78
1C
78
ENDCHAR
STARTCHAR 00A8
ENCODING 168
SWIDTH 700 0
DWIDTH 7 0
BBX 5 1 1 5
BITMAP
F8
ENDCHAR
STARTCHAR 00A9
ENCODING 169
SWIDTH 1200 0
DWIDTH 12 0
BBX 10 8 1 -1
BITMAP
7F80
E1C0
FFC0
F9C0
F9C0
FFC0
E1C0
7F80
ENDCHAR
STARTCHAR 00AA
ENCODING 170
SWIDTH 700 0
DWIDTH 7 0
BBX 5 3 1 3
BITMAP
70
F8
78
ENDCHAR
STARTCHAR 00AB
ENCODING 171
SWIDTH 1000 0
DWIDTH 10 0
BBX 8 3 1 1
BITMAP
77
FC
77
ENDCHAR
STARTCHAR 00AC
ENCODING 172
SWIDTH 900 0
DWIDTH 9 0
BBX 7 2 1 2
BITMAP
FE
0E
ENDCHAR
STARTCHAR 00AD
ENCODING 173
SWIDTH 700 0
DWIDTH 7 0
BBX 5 1 1 3
BITMAP
F8
ENDCHAR
STARTCHAR 00AE
ENCODING 174
SWIDTH 1200 0
DWIDTH 12 0
BBX 10 8 1 -1
BITMAP
7F80
E1C0
EFC0
E9C0
F9C0
F9C0
E1C0
7F80
ENDCHAR
STARTCHAR 00AF
ENCODING 175
SWIDTH 800 0
DWIDTH 8 0
BBX 6 1 1 5
BITMAP
FC
ENDCHAR
STARTCHAR 00B0
ENCODING 176
SWIDTH 700 0
DWIDTH 7 0
BBX 5 4 1 2
BITMAP
70
70
F8
70
ENDCHAR
STARTCHAR 00B1
ENCODING 177
SWIDTH 1000 0
DWIDTH 10 0
BBX 8 7 1 -1
BITMAP
38
38
FF
38
38
38
FF
ENDCHAR
STARTCHAR 00B2
ENCODING 178
SWIDTH 700 0
DWIDTH 7 0
BBX 5 5 1 1
BITMAP
F0
38
70
70
F8
ENDCHAR
STARTCHAR 00B3
ENCODING 179
SWIDTH 700 0
DWIDTH 7 0
BBX 5 5 1 1
BITMAP
F0
78
38
38
F8
ENDCHAR
STARTCHAR 00B4
ENCODING 180
SWIDTH 600 0
DWIDTH 6 0
BBX 4 2 1 4
BITMAP
70
E0
ENDCHAR
STARTCHAR 00B5
ENCODING 181
SWIDTH 800 0
DWIDTH 8 0
BBX 6 7 1 -1
BITMAP
FC
FC
FC
FC
FC
F8
E0
ENDCHAR
STARTCHAR 00B6
ENCODING 182
SWIDTH 1000 0
DWIDTH 10 0
BBX 7 6 2 0
BITMAP
7E
FE
7E
7E
3E
3E
ENDCHAR
STARTCHAR 00B7
ENCODING 183
SWIDTH 500 0
DWIDTH 5 0
BBX 3 1 1 3
BITMAP
E0
ENDCHAR
STARTCHAR 00B8
ENCODING 184
SWIDTH 600 0
DWIDTH 6 0
BBX 4 2 1 -1
BITMAP
70
E0
ENDCHAR
STARTCHAR 00B9
ENCODING 185
SWIDTH 600 0
DWIDTH 6 0
BBX 4 5 1 1
BITMAP
F0
70
70
70
70
ENDCHAR
STARTCHAR 00BA
ENCODING 186
SWIDTH 700 0
DWIDTH 7 0
BBX 5 4 1 2
BITMAP
70
F8
70
70
ENDCHAR
STARTCHAR 00BB
ENCODING 187
SWIDTH 1000 0
DWIDTH 10 0
BBX 8 3 1 1
BITMAP
FC
77
FC
ENDCHAR
STARTCHAR 00BC
ENCODING 188
SWIDTH 1200 0
DWIDTH 12 0
BBX 10 6 1 0
BITMAP
EC00
EC00
EC00
FFC0
77C0
71C0
ENDCHAR
STARTCHAR 00BD
ENCODING 189
SWIDTH 1200 0
DWIDTH 12 0
BBX 10 6 1 0
BITMAP
EC00
EF80
E980
F9C0
7380
77C0
ENDCHAR
STARTCHAR 00BE
ENCODING 190
SWIDTH 1300 0
DWIDTH 13 0
BBX 11 6 1 0
BITMAP
F700
7F00
3F00
3FE0
FBE0
38E0
ENDCHAR
STARTCHAR 00BF
ENCODING 191
SWIDTH 800 0
DWIDTH 8 0
BBX 6 6 1 0
BITMAP
38
00
78
60
E0
7C
ENDCHAR
STARTCHAR 00C0
ENCODING 192
SWIDTH 800 0
DWIDTH 8 0
BBX 6 10 1 0
BITMAP
70
30
38
00
78
EC
FC
EC
EC
EC
ENDCHAR
STARTCHAR 00C1
ENCODING 193
SWIDTH 800 0
DWIDTH 8 0
BBX 6 10 1 0
BITMAP
38
20
70
00
78
FC
FC
FC
FC
FC
ENDCHAR
STARTCHAR 00C2
ENCODING 194
SWIDTH 800 0
DWIDTH 8 0
BBX 6 10 1 0
BITMAP
78
78
FC
00
78
FC
FC
FC
FC
FC
ENDCHAR
STARTCHAR 00C3
ENCODING 195
SWIDTH 800 0
DWIDTH 8 0
BBX 6 10 1 0
BITMAP
7C
78
F8
00
78
FC
FC
FC
FC
FC
ENDCHAR
STARTCHAR 00C4
ENCODING 196
SWIDTH 800 0
DWIDTH 8 0
BBX 6 8 1 0
BITMAP
FC
00
78
FC
FC
FC
FC
FC
ENDCHAR
STARTCHAR 00C5
ENCODING 197
SWIDTH 900 0
DWIDTH 9 0
BBX 7 10 1 0
BITMAP
EE
EC
7C
00
78
EC
FC
EC
EC
EC
ENDCHAR
STARTCHAR 00C6
ENCODING 198
SWIDTH 900 0
DWIDTH 9 0
BBX 7 6 1 0
BITMAP
7E
F8
FE
F8
F8
FE
ENDCHAR
STARTCHAR 00C7
ENCODING 199
SWIDTH 800 0
DWIDTH 8 0
BBX 6 8 1 -2
BITMAP
7C
EC
E0
E0
EC
7C
70
E0
ENDCHAR
STARTCHAR 00C8
ENCODING 200
SWIDTH 800 0
DWIDTH 8 0
BBX 5 10 1 0
BITMAP
E0
40
70
00
F8
E0
F8
E0
E0
F8
ENDCHAR
STARTCHAR 00C9
ENCODING 201
SWIDTH 700 0
DWIDTH 7 0
BBX 5 10 1 0
BITMAP
38
30
70
00
F8
E0
F8
E0
E0
F8
ENDCHAR
STARTCHAR 00CA
ENCODING 202
SWIDTH 700 0
DWIDTH 7 0
BBX 5 9 1 0
BITMAP
70
F8
00
F8
E0
F8
E0
E0
F8
ENDCHAR
STARTCHAR 00CB
ENCODING 203
SWIDTH 700 0
DWIDTH 7 0
BBX 5 8 1 0
BITMAP
F8
00
F8
E0
F8
E0
E0
F8
ENDCHAR
STARTCHAR 00CC
ENCODING 204
SWIDTH 500 0
DWIDTH 5 0
BBX 4 10 0 0
BITMAP
E0
40
70
00
70
70
70
70
70
70
ENDCHAR
STARTCHAR 00CD
ENCODING 205
SWIDTH 500 0
DWIDTH 5 0
BBX 4 10 1 0
BITMAP
70
60
E0
00
E0
E0
E0
E0
E0
E0
ENDCHAR
STARTCHAR 00CE
ENCODING 206
SWIDTH 500 0
DWIDTH 5 0
BBX 5 9 0 0
BITMAP
70
F8
00
70
70
70
70
70
70
ENDCHAR
STARTCHAR 00CF
ENCODING 207
SWIDTH 500 0
DWIDTH 5 0
BBX 5 8 0 0
BITMAP
F8
00
70
70
70
70
70
70
ENDCHAR
STARTCHAR 00D0
ENCODING 208
SWIDTH 900 0
DWIDTH 9 0
BBX 7 6 1 0
BITMAP
7C
7E
FE
7E
7E
7C
ENDCHAR
STARTCHAR 00D1
ENCODING 209
SWIDTH 1000 0
DWIDTH 10 0
BBX 8 10 1 0
BITMAP
1F
1C
7C
00
E7
F7
F7
EF
EF
E7
ENDCHAR
STARTCHAR 00D2
ENCODING 210
SWIDTH 800 0
DWIDTH 8 0
BBX 6 10 1 0
BITMAP
70
30
38
00
78
EC
EC
EC
EC
78
ENDCHAR
STARTCHAR 00D3
ENCODING 211
SWIDTH 800 0
DWIDTH 8 0
BBX 6 10 1 0
BITMAP
38
20
70
00
78
FC
FC
FC
FC
78
ENDCHAR
STARTCHAR 00D4
ENCODING 212
SWIDTH 800 0
DWIDTH 8 0
BBX 6 10 1 0
BITMAP
78
78
FC
00
78
FC
FC
FC
FC
78
ENDCHAR
STARTCHAR 00D5
ENCODING 213
SWIDTH 800 0
DWIDTH 8 0
BBX 6 10 1 0
BITMAP
7C
78
F8
00
78
FC
FC
FC
FC
78
ENDCHAR
STARTCHAR 00D6
ENCODING 214
SWIDTH 800 0
DWIDTH 8 0
BBX 6 8 1 0
BITMAP
FC
00
78
FC
FC
FC
FC
78
ENDCHAR
STARTCHAR 00D7
ENCODING 215
SWIDTH 700 0
DWIDTH 7 0
BBX 5 3 1 1
BITMAP
F8
70
F8
ENDCHAR
STARTCHAR 00D8
ENCODING 216
SWIDTH 1000 0
DWIDTH 10 0
BBX 8 6 1 0
BITMAP
7C
EF
FF
FF
F7
7C
ENDCHAR
STARTCHAR 00D9
ENCODING 217
SWIDTH 800 0
DWIDTH 8 0
BBX 6 10 1 0
BITMAP
70
30
38
00
EC
EC
EC
EC
EC
78
ENDCHAR
STARTCHAR 00DA
ENCODING 218
SWIDTH 800 0
DWIDTH 8 0
BBX 6 10 1 0
BITMAP
38
20
70
00
FC
FC
FC
FC
FC
78
ENDCHAR
STARTCHAR 00DB
ENCODING 219
SWIDTH 800 0
DWIDTH 8 0
BBX 6 10 1 0
BITMAP
78
78
FC
00
FC
FC
FC
FC
FC
78
ENDCHAR
STARTCHAR 00DC
ENCODING 220
SWIDTH 800 0
DWIDTH 8 0
BBX 6 8 1 0
BITMAP
FC
00
FC
FC
FC
FC
FC
78
ENDCHAR
STARTCHAR 00DD
ENCODING 221
SWIDTH 1000 0
DWIDTH 10 0
BBX 8 10 1 0
BITMAP
0C
08
38
00
E7
7C
38
38
38
38
ENDCHAR
STARTCHAR 00DE
ENCODING 222
SWIDTH 700 0
DWIDTH 7 0
BBX 5 6 1 0
BITMAP
E0
F0
F8
F0
F0
E0
ENDCHAR
STARTCHAR 00DF
ENCODING 223
SWIDTH 800 0
DWIDTH 8 0
BBX 6 6 1 0
BITMAP
78
FC
F8
F8
FC
F8
ENDCHAR
STARTCHAR 00E0
ENCODING 224
SWIDTH 800 0
DWIDTH 8 0
BBX 6 10 1 0
BITMAP
70
30
38
00
78
EC
FC
EC
EC
EC
ENDCHAR
STARTCHAR 00E1
ENCODING 225
SWIDTH 800 0
DWIDTH 8 0
BBX 6 10 1 0
BITMAP
38
20
70
00
78
FC
FC
FC
FC
FC
ENDCHAR
STARTCHAR 00E2
ENCODING 226
SWIDTH 800 0
DWIDTH 8 0
BBX 6 10 1 0
BITMAP
78
78
FC
00
78
FC
FC
FC
FC
FC
ENDCHAR
STARTCHAR 00E3
ENCODING 227
SWIDTH 800 0
DWIDTH 8 0
BBX 6 10 1 0
BITMAP
7C
78
F8
00
78
FC
FC
FC
FC
FC
ENDCHAR
STARTCHAR 00E4
ENCODING 228
SWIDTH 800 0
DWIDTH 8 0
BBX 6 8 1 0
BITMAP
FC
00
78
FC
FC
FC
FC
FC
ENDCHAR
STARTCHAR 00E5
ENCODING 229
SWIDTH 900 0
DWIDTH 9 0
BBX 7 10 1 0
BITMAP
EE
EC
7C
00
78
EC
FC
EC
EC
EC
ENDCHAR
STARTCHAR 00E6
ENCODING 230
SWIDTH 900 0
DWIDTH 9 0
BBX 7 6 1 0
BITMAP
7E
F8
FE
F8
F8
FE
ENDCHAR
STARTCHAR 00E7
ENCODING 231
SWIDTH 800 0
DWIDTH 8 0
BBX 6 8 1 -2
BITMAP
7C
EC
E0
E0
EC
7C
70
E0
ENDCHAR
STARTCHAR 00E8
ENCODING 232
SWIDTH 800 0
DWIDTH 8 0
BBX 5 10 1 0
BITMAP
E0
40
70
00
F8
E0
F8
E0
E0
F8
ENDCHAR
STARTCHAR 00E9
ENCODING 233
SWIDTH 700 0
DWIDTH 7 0
BBX 5 10 1 0
BITMAP
38
30
70
00
F8
E0
F8
E0
E0
F8
ENDCHAR
STARTCHAR 00EA
ENCODING 234
SWIDTH 700 0
DWIDTH 7 0
BBX 5 9 1 0
BITMAP
70
F8
00
F8
E0
F8
E0
E0
F8
ENDCHAR
STARTCHAR 00EB
ENCODING 235
SWIDTH 700 0
DWIDTH 7 0
BBX 5 8 1 0
BITMAP
F8
00
F8
E0
F8
E0
E0
F8
ENDCHAR
STARTCHAR 00EC
ENCODING 236
SWIDTH 500 0
DWIDTH 5 0
BBX 4 10 0 0
BITMAP
E0
40
70
00
70
70
70
70
70
70
ENDCHAR
STARTCHAR 00ED
ENCODING 237
SWIDTH 500 0
DWIDTH 5 0
BBX 4 10 1 0
BITMAP
70
60
E0
00
E0
E0
E0
E0
E0
E0
ENDCHAR
STARTCHAR 00EE
ENCODING 238
SWIDTH 500 0
DWIDTH 5 0
BBX 5 9 0 0
BITMAP
70
F8
00
70
70
70
70
70
70
ENDCHAR
STARTCHAR 00EF
ENCODING 239
SWIDTH 500 0
DWIDTH 5 0
BBX 5 8 0 0
BITMAP
F8
00
70
70
70
70
70
70
ENDCHAR
STARTCHAR 00F0
ENCODING 240
SWIDTH 900 0
DWIDTH 9 0
BBX 7 6 1 0
BITMAP
7C
7E
FE
7E
7E
7C
ENDCHAR
STARTCHAR 00F1
ENCODING 241
SWIDTH 1000 0
DWIDTH 10 0
BBX 8 10 1 0
BITMAP
1F
1C
7C
00
E7
F7
F7
EF
EF
E7
ENDCHAR
STARTCHAR 00F2
ENCODING 242
SWIDTH 800 0
DWIDTH 8 0
BBX 6 10 1 0
BITMAP
70
30
38
00
78
EC
EC
EC
EC
78
ENDCHAR
STARTCHAR 00F3
ENCODING 243
SWIDTH 800 0
DWIDTH 8 0
BBX 6 10 1 0
BITMAP
38
20
70
00
78
FC
FC
FC
FC
78
ENDCHAR
STARTCHAR 00F4
ENCODING 244
SWIDTH 800 0
DWIDTH 8 0
BBX 6 10 1 0
BITMAP
78
78
FC
00
78
FC
FC
FC
FC
78
ENDCHAR
STARTCHAR 00F5
ENCODING 245
SWIDTH 800 0
DWIDTH 8 0
BBX 6 10 1 0
BITMAP
7C
78
F8
00
78
FC
FC
FC
FC
78
ENDCHAR
STARTCHAR 00F6
ENCODING 246
SWIDTH 800 0
DWIDTH 8 0
BBX 6 8 1 0
BITMAP
FC
00
78
FC
FC
FC
FC
78
ENDCHAR
STARTCHAR 00F7
ENCODING 247
SWIDTH 700 0
DWIDTH 7 0
BBX 5 6 1 0
BITMAP
70
00
F8
00
00
70
ENDCHAR
STARTCHAR 00F8
ENCODING 248
SWIDTH 1000 0
DWIDTH 10 0
BBX 8 6 1 0
BITMAP
7C
EF
FF
FF
F7
7C
ENDCHAR
STARTCHAR 00F9
ENCODING 249
SWIDTH 800 0
DWIDTH 8 0
BBX 6 10 1 0
BITMAP
70
30
38
00
EC
EC
EC
EC
EC
78
ENDCHAR
STARTCHAR 00FA
ENCODING 250
SWIDTH 800 0
DWIDTH 8 0
BBX 6 10 1 0
BITMAP
38
20
70
00
FC
FC
FC
FC
FC
78
ENDCHAR
STARTCHAR 00FB
ENCODING 251
SWIDTH 800 0
DWIDTH 8 0
BBX 6 10 1 0
BITMAP
78
78
FC
00
FC
FC
FC
FC
FC
78
ENDCHAR
STARTCHAR 00FC
ENCODING 252
SWIDTH 800 0
DWIDTH 8 0
BBX 6 8 1 0
BITMAP
FC
00
FC
FC
FC
FC
FC
78
ENDCHAR
STARTCHAR 00FD
ENCODING 253
SWIDTH 1000 0
DWIDTH 10 0
BBX 8 10 1 0
BITMAP
0C
08
38
00
E7
7C
38
38
38
38
ENDCHAR
STARTCHAR 00FE
ENCODING 254
SWIDTH 700 0
DWIDTH 7 0
BBX 5 6 1 0
BITMAP
E0
F0
F8
F0
F0
E0
ENDCHAR
STARTCHAR 00FF
ENCODING 255
SWIDTH 1000 0
DWIDTH 10 0
BBX 8 8 1 0
BITMAP
7C
00
E7
7C
38
38
38
38
ENDCHAR
STARTCHAR 0152
ENCODING 338
SWIDTH 900 0
DWIDTH 9 0
BBX 7 6 1 0
BITMAP
7E
F8
FE
F8
F8
7E
ENDCHAR
STARTCHAR 0153
ENCODING 339
SWIDTH 900 0
DWIDTH 9 0
BBX 7 6 1 0
BITMAP
7E
F8
FE
F8
F8
7E
ENDCHAR
STARTCHAR 0160
ENCODING 352
SWIDTH 800 0
DWIDTH 8 0
BBX 6 10 1 0
BITMAP
FC
78
78
00
7C
E0
78
18
1C
F8
ENDCHAR
STARTCHAR 0161
ENCODING 353
SWIDTH 800 0
DWIDTH 8 0
BBX 6 10 1 0
BITMAP
FC
78
78
00
7C
E0
78
18
1C
F8
ENDCHAR
STARTCHAR 0178
ENCODING 376
SWIDTH 1000 0
DWIDTH 10 0
BBX 8 8 1 0
BITMAP
7C
00
E7
7C
38
38
38
38
ENDCHAR
STARTCHAR 017D
ENCODING 381
SWIDTH 700 0
DWIDTH 7 0
BBX 5 10 1 0
BITMAP
F8
70
00
00
F8
38
70
70
E0
F8
ENDCHAR
STARTCHAR 017E
ENCODING 382
SWIDTH 700 0
DWIDTH 7 0
BBX 5 10 1 0
BITMAP
F8
70
00
00
F8
38
70
70
E0
F8
ENDCHAR
STARTCHAR 0192
ENCODING 402
SWIDTH 1000 0
DWIDTH 10 0
BBX 8 7 1 -1
BITMAP
3F
38
7C
70
70
70
E0
ENDCHAR
STARTCHAR 02C6
ENCODING 710
SWIDTH 700 0
DWIDTH 7 0
BBX 5 2 1 5
BITMAP
70
F8
ENDCHAR
STARTCHAR 02DC
ENCODING 732
SWIDTH 800 0
DWIDTH 8 0
BBX 6 2 1 4
BITMAP
7C
F8
ENDCHAR
STARTCHAR 2013
ENCODING 8211
SWIDTH 800 0
DWIDTH 8 0
BBX 6 1 1 3
BITMAP
FC
ENDCHAR
STARTCHAR 2014
ENCODING 8212
SWIDTH 1100 0
DWIDTH 11 0
BBX 9 1 1 3
BITMAP
FF80
ENDCHAR
STARTCHAR 2018
ENCODING 8216
SWIDTH 500 0
DWIDTH 5 0
BBX 3 2 1 4
BITMAP
E0
E0
ENDCHAR
STARTCHAR 2019
ENCODING 8217
SWIDTH 500 0
DWIDTH 5 0
BBX 3 2 1 4
BITMAP
E0
E0
ENDCHAR
STARTCHAR 201A
ENCODING 8218
SWIDTH 600 0
DWIDTH 6 0
BBX 4 2 1 -1
BITMAP
70
E0
ENDCHAR
STARTCHAR 201C
ENCODING 8220
SWIDTH 700 0
DWIDTH 7 0
BBX 5 2 1 4
BITMAP
F8
F8
ENDCHAR
STARTCHAR 201D
ENCODING 8221
SWIDTH 700 0
DWIDTH 7 0
BBX 5 2 1 4
BITMAP
F8
F8
ENDCHAR
STARTCHAR 201E
ENCODING 8222
SWIDTH 700 0
DWIDTH 7 0
BBX 5 2 1 0
BITMAP
F8
F8
ENDCHAR
STARTCHAR 2020
ENCODING 8224
SWIDTH 700 0
DWIDTH 7 0
BBX 5 6 1 0
BITMAP
70
F8
70
70
70
70
ENDCHAR
STARTCHAR 2021
ENCODING 8225
SWIDTH 700 0
DWIDTH 7 0
BBX 5 6 1 0
BITMAP
70
F8
70
70
F8
70
ENDCHAR
STARTCHAR 2022
ENCODING 8226
SWIDTH 500 0
DWIDTH 5 0
BBX 3 1 1 3
BITMAP
E0
ENDCHAR
STARTCHAR 2026
ENCODING 8230
SWIDTH 1000 0
DWIDTH 10 0
BBX 8 1 1 0
BITMAP
FF
ENDCHAR
STARTCHAR 2030
ENCODING 8240
SWIDTH 1100 0
DWIDTH 11 0
BBX 9 6 1 0
BITMAP
FC00
FC00
3800
3800
7F80
7F80
ENDCHAR
STARTCHAR 2039
ENCODING 8249
SWIDTH 600 0
DWIDTH 6 0
BBX 4 3 1 1
BITMAP
70
E0
70
ENDCHAR
STARTCHAR 203A
ENCODING 8250
SWIDTH 600 0
DWIDTH 6 0
BBX 4 3 1 1
BITMAP
E0
70
E0
ENDCHAR
STARTCHAR 20AC
ENCODING 8364
SWIDTH 1000 0
DWIDTH 10 0
BBX 8 6 1 0
BITMAP
3C
77
F8
78
77
3C
ENDCHAR
STARTCHAR 2122
ENCODING 8482
SWIDTH 1300 0
DWIDTH 13 0
BBX 10 4 1 4
BITMAP
FCC0
6D40
6B40
6B40
ENDCHAR
ENDFONT
